<?xml version="1.0" standalone="no"?>
<!DOCTYPE svg PUBLIC "-//W3C//DTD SVG 20010904//EN"
 "http://www.w3.org/TR/2001/REC-SVG-20010904/DTD/svg10.dtd">
<svg version="1.0" xmlns="http://www.w3.org/2000/svg"
 width="900.000000pt" height="975.000000pt" viewBox="0 0 900.000000 975.000000"
 preserveAspectRatio="xMidYMid meet">

<g transform="translate(0.000000,975.000000) scale(0.100000,-0.100000)"
fill="#000000" stroke="none">
<path d="M3313 5453 c3 -763 6 -891 20 -978 67 -393 202 -689 424 -926 165
-174 356 -287 560 -328 211 -43 426 -12 628 93 386 199 675 678 734 1218 7 61
11 412 11 948 l0 850 -1191 0 -1190 0 4 -877z m2287 -6 c0 -829 -2 -886 -41
-1078 -68 -341 -256 -673 -485 -858 -290 -234 -634 -280 -949 -126 -383 187
-659 651 -715 1204 -11 113 -15 1653 -3 1664 3 4 498 7 1100 7 l1093 0 0 -813z"/>
<path d="M3442 5383 c4 -812 4 -841 25 -945 71 -350 203 -618 403 -819 383
-386 895 -382 1273 10 195 203 320 456 390 791 21 102 21 127 25 953 l3 847
-1061 0 -1061 0 3 -837z m198 677 c0 -15 -7 -20 -25 -20 l-25 0 0 -120 c0
-113 -1 -120 -20 -120 -18 0 -20 8 -22 118 -3 113 -4 117 -25 120 -15 2 -23
10 -23 23 0 17 8 19 70 19 63 0 70 -2 70 -20z m190 -120 l0 -140 -75 0 -75 0
0 140 0 140 75 0 75 0 0 -140z m180 120 c0 -17 -7 -20 -50 -20 l-50 0 0 -100
0 -100 50 0 c43 0 50 -3 50 -20 0 -18 -7 -20 -75 -20 l-75 0 0 140 0 140 75 0
c68 0 75 -2 75 -20z m190 -120 l0 -140 -25 0 c-24 0 -25 2 -25 70 l0 70 -30 0
-30 0 0 -70 c0 -63 -2 -70 -20 -70 -19 0 -20 7 -20 140 l0 140 75 0 75 0 0
-140z m260 120 c0 -17 -7 -20 -50 -20 -47 0 -50 -2 -50 -25 0 -21 5 -25 30
-25 25 0 30 -4 30 -25 0 -21 -5 -25 -30 -25 l-30 0 0 -70 c0 -68 -1 -70 -25
-70 l-25 0 0 140 0 140 75 0 c68 0 75 -2 75 -20z m183 0 c7 -27 8 -220 1 -242
-4 -15 -17 -18 -75 -18 l-69 0 0 140 0 140 69 0 c61 0 69 -2 74 -20z m227
-120 c0 -133 -1 -140 -20 -140 -19 0 -20 7 -20 120 0 98 -3 120 -14 120 -11 0
-16 -14 -18 -47 -3 -40 -6 -48 -23 -48 -17 0 -20 8 -23 48 -2 26 -7 47 -13 47
-5 0 -9 -51 -9 -120 l0 -120 -25 0 -25 0 0 140 0 140 95 0 95 0 0 -140z m80 0
c0 -133 -1 -140 -20 -140 -19 0 -20 7 -20 140 0 133 1 140 20 140 19 0 20 -7
20 -140z m188 20 c3 -135 -1 -160 -28 -160 -19 0 -20 7 -20 120 l0 120 -30 0
-30 0 0 -120 c0 -113 -1 -120 -20 -120 -19 0 -20 7 -20 140 l0 141 73 -3 72
-3 3 -115z m80 73 c3 -40 5 -43 33 -43 28 0 29 2 29 45 0 38 3 45 20 45 19 0
20 -7 20 -140 0 -133 -1 -140 -20 -140 -18 0 -20 7 -20 70 l0 70 -30 0 c-29 0
-29 0 -32 -67 -3 -62 -5 -68 -25 -71 -23 -3 -23 -3 -23 138 0 141 0 141 23
138 18 -2 23 -10 25 -45z m282 -93 c0 -133 -1 -140 -20 -140 -18 0 -20 7 -20
70 l0 70 -30 0 -30 0 0 -70 c0 -63 -2 -70 -20 -70 -19 0 -20 7 -20 140 l0 140
70 0 70 0 0 -140z m-1520 -297 c81 -26 200 -147 200 -203 0 -6 -35 -27 -77
-47 -258 -119 -327 -154 -313 -162 8 -5 80 -32 159 -60 79 -28 148 -54 154
-58 12 -7 -22 -35 -88 -71 -44 -23 -61 -27 -140 -27 -108 0 -164 23 -234 95
-66 67 -86 118 -86 220 0 77 3 92 33 153 38 76 109 139 184 162 60 19 146 18
208 -2z m840 -217 c0 -9 -40 -13 -46 -5 -3 5 6 9 20 9 14 0 26 -2 26 -4z m410
0 c0 -9 -40 -13 -46 -5 -3 5 6 9 20 9 14 0 26 -2 26 -4z m-837 -13 c-7 -2 -21
-2 -30 0 -10 3 -4 5 12 5 17 0 24 -2 18 -5z m516 -19 c35 -29 39 -42 14 -40
-12 0 -19 -7 -21 -21 -2 -13 2 -23 9 -23 8 0 9 -3 0 -13 -16 -20 20 -51 48
-42 54 17 -5 -118 -64 -147 -15 -7 -14 -5 4 10 17 14 22 24 16 41 -4 15 -12
20 -22 17 -8 -3 -25 -6 -38 -6 -15 0 -32 -11 -45 -31 l-22 -30 21 -6 c40 -10
22 -25 -21 -18 -50 8 -60 13 -53 25 6 10 -39 59 -77 83 -34 22 -37 60 -8 117
11 22 20 45 20 52 1 28 48 49 93 43 23 -4 53 -2 67 4 38 15 46 13 79 -15z
m410 0 c35 -29 39 -42 14 -40 -12 0 -19 -7 -21 -21 -2 -13 1 -23 7 -23 6 0 8
-7 5 -15 -9 -24 16 -47 43 -40 18 4 23 1 23 -14 0 -47 -41 -111 -85 -133 -15
-7 -14 -5 4 10 17 14 22 24 16 41 -4 15 -12 20 -22 17 -8 -3 -25 -6 -38 -6
-15 0 -32 -11 -45 -31 l-22 -30 21 -6 c40 -10 22 -25 -21 -18 -50 8 -60 13
-53 25 6 10 -40 60 -77 83 -36 22 -36 56 -2 131 32 70 58 89 110 81 22 -4 50
-2 64 4 38 15 46 13 79 -15z m-978 5 c15 -8 34 -7 70 1 47 12 51 11 87 -16 32
-25 34 -29 17 -33 -21 -4 -35 -18 -35 -38 0 -8 7 -10 18 -6 15 6 15 4 4 -9
-10 -13 -11 -22 -2 -37 12 -24 15 -25 41 -11 16 9 19 7 19 -14 0 -52 -39 -115
-85 -137 -17 -9 -17 -7 3 10 22 19 29 46 14 55 -4 2 -26 2 -48 -1 -30 -4 -44
-12 -56 -33 -16 -28 -16 -29 10 -39 27 -9 27 -9 -8 -10 -49 -1 -79 9 -74 24 4
11 -15 31 -85 87 -11 10 -21 28 -21 40 0 39 52 144 79 161 31 20 28 19 52 6z
m129 -1134 c0 -305 -2 -555 -4 -555 -2 0 -51 80 -110 178 l-106 179 0 261 0
262 -155 0 -155 0 -43 68 c-24 37 -55 88 -70 115 l-28 47 336 0 335 0 0 -555z
m730 549 c0 -3 -30 -55 -66 -115 l-65 -109 -267 2 -267 3 -3 113 -3 112 336 0
c184 0 335 -3 335 -6z m-196 -331 c-100 -173 -96 -168 -150 -171 -100 -5 -94
3 -94 -125 l0 -112 -106 -177 c-58 -98 -110 -178 -115 -178 -5 0 -9 163 -9
405 l0 405 251 0 251 0 -28 -47z m-624 -957 c0 -43 -1 -45 -32 -48 -46 -4 -51
-35 -7 -40 53 -5 48 -28 -5 -28 l-46 0 0 45 c0 43 1 45 30 45 41 0 44 37 3 42
-48 6 -39 28 11 28 l46 0 0 -44z m110 -36 l0 -80 -45 0 -45 0 0 80 0 80 45 0
45 0 0 -80z m110 35 c0 -43 -1 -45 -30 -45 -23 0 -30 -4 -30 -20 0 -16 7 -20
30 -20 20 0 30 -5 30 -15 0 -11 -12 -15 -45 -15 l-45 0 0 44 c0 43 1 45 32 48
46 4 51 35 7 40 -53 5 -48 28 5 28 l46 0 0 -45z m110 -35 l0 -80 -45 0 -45 0
0 80 0 80 45 0 45 0 0 -80z"/>
<path d="M3724 6027 c-3 -8 -4 -52 -2 -98 3 -83 3 -84 31 -87 l27 -3 0 100 0
101 -25 0 c-14 0 -28 -6 -31 -13z"/>
<path d="M4090 6015 c0 -21 5 -25 30 -25 25 0 30 4 30 25 0 21 -5 25 -30 25
-25 0 -30 -4 -30 -25z"/>
<path d="M4540 5940 l0 -100 30 0 30 0 0 100 0 100 -30 0 -30 0 0 -100z"/>
<path d="M5400 6015 c0 -21 5 -25 30 -25 25 0 30 4 30 25 0 21 -5 25 -30 25
-25 0 -30 -4 -30 -25z"/>
<path d="M3905 5507 c-18 -27 -12 -53 17 -68 27 -15 57 -2 64 28 14 55 -50 87
-81 40z"/>
<path d="M4727 5317 c-23 -19 -26 -28 -21 -54 4 -20 14 -33 28 -37 42 -11 56
-6 70 27 13 30 12 34 -12 60 -31 32 -30 32 -65 4z m58 -27 c4 -6 -6 -10 -24
-10 -16 0 -33 5 -36 10 -4 6 6 10 24 10 16 0 33 -4 36 -10z"/>
<path d="M5139 5317 c-22 -18 -26 -28 -22 -54 3 -21 12 -33 27 -37 43 -12 57
-6 71 27 13 30 12 34 -13 60 -31 32 -30 32 -63 4z m56 -27 c4 -6 -6 -10 -24
-10 -16 0 -33 5 -36 10 -4 6 6 10 24 10 16 0 33 -4 36 -10z"/>
<path d="M4313 5313 c-25 -17 -33 -81 -10 -87 60 -19 67 -18 83 20 15 35 14
38 -7 60 -26 28 -36 29 -66 7z m43 -28 c18 -14 17 -14 -13 -15 -33 0 -52 15
-31 23 20 8 23 8 44 -8z"/>
<path d="M4420 3491 c0 -44 3 -51 20 -51 17 0 20 7 20 40 0 22 1 43 3 48 1 4
-8 8 -20 10 -21 3 -23 0 -23 -47z"/>
<path d="M4650 3490 c0 -43 3 -50 20 -50 17 0 20 7 20 50 0 43 -3 50 -20 50
-17 0 -20 -7 -20 -50z"/>
</g>
</svg>
